<?xml version="1.0" encoding="utf-8"?>
<!-- Generator: Adobe Illustrator 22.0.0, SVG Export Plug-In . SVG Version: 6.00 Build 0)  -->
<svg version="1.1" id="Camada_1" xmlns="http://www.w3.org/2000/svg" xmlns:xlink="http://www.w3.org/1999/xlink" x="0px" y="0px"
	 viewBox="0 0 425.2 283.5" style="enable-background:new 0 0 425.2 283.5;" xml:space="preserve">
<style type="text/css">
	.st0{clip-path:url(#SVGID_1_);fill:url(#SVGID_2_);}
	.st1{clip-path:url(#SVGID_3_);fill:url(#SVGID_4_);}
	.st2{fill:#FFFFFF;}
	.st3{clip-path:url(#SVGID_5_);fill:url(#SVGID_6_);}
</style>
<g>
	<g>
		<g>
			<defs>
				<rect id="SVGID_10_" x="131.5" y="52.5" width="32" height="145.2"/>
			</defs>
			<clipPath id="SVGID_1_">
				<use xlink:href="#SVGID_10_"  style="overflow:visible;"/>
			</clipPath>
			
				<linearGradient id="SVGID_2_" gradientUnits="userSpaceOnUse" x1="-221.3538" y1="761.8417" x2="-220.098" y2="761.8417" gradientTransform="matrix(25.4449 0 0 168.9415 5763.8765 -128581.5859)">
				<stop  offset="0" style="stop-color:#F1CF00"/>
				<stop  offset="1" style="stop-color:#CF8909"/>
			</linearGradient>
			<rect x="131.5" y="52.5" class="st0" width="32" height="145.2"/>
		</g>
		<g>
			<defs>
				<path id="SVGID_13_" d="M56.7,197.7H21.4L130.8,52.5h32.7C154.9,73.8,94.2,150.3,56.7,197.7"/>
			</defs>
			<clipPath id="SVGID_3_">
				<use xlink:href="#SVGID_13_"  style="overflow:visible;"/>
			</clipPath>
			
				<linearGradient id="SVGID_4_" gradientUnits="userSpaceOnUse" x1="-220.6064" y1="761.8631" x2="-219.3506" y2="761.8631" gradientTransform="matrix(113.1704 0 0 168.9415 24987.498 -128581.5859)">
				<stop  offset="0" style="stop-color:#F1CF00"/>
				<stop  offset="1" style="stop-color:#CF8909"/>
			</linearGradient>
			<rect x="21.4" y="52.5" class="st1" width="142.1" height="152.4"/>
		</g>
		<g>
			<polygon class="st2" points="309.9,53.4 394.1,53.4 394.1,84.9 341.9,84.9 341.9,115.6 394.1,115.6 394.1,146.7 341.9,146.7 
				341.9,197.7 309.9,197.7 			"/>
			<path class="st2" d="M309.5,83.3l-28.7,15.8c-5.4-5.7-10.7-9.6-16-11.8c-5.3-2.2-11.5-3.3-18.5-3.3c-12.9,0-23.4,3.8-31.4,11.6
				c-8,7.7-11.9,17.6-11.9,29.7c0,11.7,3.8,21.3,11.5,28.7c7.7,7.4,17.8,11.2,30.3,11.2c15.5,0,31.7-5.6,39.1-18.6L318,146
				c-4.2,37.3-45.6,50.8-72.5,50.8c-24.2,0-43.2-7.2-56.9-21.5c-13.7-14.3-20.6-31.2-20.6-50.4c0-13.4,3.3-25.6,10-36.9
				c6.7-11.2,16-20,27.9-26.4c12-6.4,25.3-9.6,40.1-9.6c13.7,0,25.9,2.7,36.8,8.2C293.7,65.5,302.6,73.3,309.5,83.3"/>
			<g>
				<defs>
					<rect id="SVGID_16_" x="233.1" y="114" width="161.8" height="34.4"/>
				</defs>
				<clipPath id="SVGID_5_">
					<use xlink:href="#SVGID_16_"  style="overflow:visible;"/>
				</clipPath>
				
					<linearGradient id="SVGID_6_" gradientUnits="userSpaceOnUse" x1="-220.2143" y1="769.4015" x2="-218.9585" y2="769.4015" gradientTransform="matrix(128.8165 0 0 42.035 28600.2988 -32210.5117)">
					<stop  offset="0" style="stop-color:#F1CF00"/>
					<stop  offset="1" style="stop-color:#CF8909"/>
				</linearGradient>
				<rect x="233.1" y="114" class="st3" width="161.8" height="34.4"/>
			</g>
			<path class="st2" d="M380.2,226l1.9-1.1c1.3,2.5,2.9,3.7,4.7,3.7c0.8,0,1.5-0.2,2.1-0.5c0.7-0.4,1.2-0.8,1.5-1.4
				c0.4-0.6,0.5-1.2,0.5-1.9c0-0.8-0.3-1.5-0.8-2.2c-0.7-1-2-2.2-3.9-3.6c-1.9-1.4-3-2.4-3.5-3.1c-0.8-1.1-1.2-2.2-1.2-3.4
				c0-1,0.2-1.9,0.7-2.7c0.5-0.8,1.1-1.4,2-1.9s1.8-0.7,2.8-0.7c1.1,0,2.1,0.3,3,0.8c0.9,0.5,1.9,1.5,2.9,2.9l-1.8,1.4
				c-0.8-1.1-1.6-1.9-2.2-2.2c-0.6-0.4-1.2-0.5-1.9-0.5c-0.9,0-1.7,0.3-2.2,0.8c-0.6,0.5-0.9,1.2-0.9,2c0,0.5,0.1,1,0.3,1.4
				c0.2,0.5,0.6,1,1.1,1.5c0.3,0.3,1.3,1,2.9,2.2c2,1.4,3.3,2.7,4,3.8c0.7,1.1,1.1,2.2,1.1,3.4c0,1.6-0.6,3.1-1.9,4.3
				c-1.2,1.2-2.8,1.8-4.5,1.8c-1.4,0-2.6-0.4-3.7-1.1C382.2,229,381.2,227.8,380.2,226 M353.7,209.3c-1.7,0-3.2,0.4-4.7,1.3
				c-1.5,0.9-2.7,2-3.5,3.5c-0.8,1.5-1.3,3.1-1.3,4.9c0,2.7,0.9,4.9,2.8,6.8c1.9,1.8,4.1,2.8,6.7,2.8c1.7,0,3.4-0.4,4.8-1.3
				c1.5-0.8,2.6-2,3.5-3.5c0.8-1.5,1.2-3.1,1.2-4.9c0-1.8-0.4-3.4-1.2-4.9c-0.8-1.4-2-2.6-3.5-3.5
				C357,209.8,355.4,209.3,353.7,209.3z M353.6,207.1c3.4,0,6.3,1.1,8.6,3.4c2.3,2.3,3.4,5.1,3.4,8.4c0,3.3-1.1,6.1-3.4,8.4
				c-2.3,2.3-5.1,3.4-8.4,3.4c-3.3,0-6.2-1.1-8.5-3.4c-2.3-2.3-3.4-5.1-3.4-8.3c0-2.2,0.5-4.2,1.6-6c1-1.9,2.5-3.3,4.3-4.3
				C349.6,207.7,351.5,207.1,353.6,207.1z M314.9,209.9v-2.2h12.4v2.2h-5v20.3h-2.3v-20.3H314.9z M281.5,230.2v-22.5h0.5l15,17.2
				v-17.2h2.2v22.5h-0.5l-14.9-17v17H281.5z M252.3,207.7h12.9v2.2h-10.7v7h10.6v2.2h-10.6v8.8h10.6v2.2h-12.8V207.7z M210,230.2
				l3.2-22.5h0.4l9.2,18.5l9.1-18.5h0.4l3.2,22.5h-2.2l-2.2-16.1l-8,16.1h-0.6l-8.1-16.2l-2.2,16.2H210z M184.3,212.5l-3.9,8.2h7.7
				L184.3,212.5z M184.6,207.7l10.5,22.5h-2.4l-3.5-7.4h-9.7l-3.5,7.4h-2.5l10.6-22.5H184.6z M146.7,209.9v7.7l3.8,0
				c1.5,0,2.7-0.1,3.4-0.4c0.7-0.3,1.3-0.7,1.7-1.4c0.4-0.6,0.6-1.3,0.6-2.1c0-0.8-0.2-1.4-0.6-2.1c-0.4-0.6-0.9-1.1-1.6-1.3
				c-0.7-0.3-1.8-0.4-3.3-0.4H146.7z M144.4,207.7h4.5c2.6,0,4.3,0.1,5.2,0.3c1.3,0.3,2.3,1,3.2,2c0.8,1,1.2,2.2,1.2,3.7
				c0,1.5-0.4,2.7-1.2,3.7c-0.8,1-1.9,1.6-3.3,2c-1,0.2-2.9,0.4-5.7,0.4h-1.6v10.5h-2.3V207.7z M124.6,207.7h2.3v22.5h-2.3V207.7z
				 M92.1,207.7h2.3v13.6c0,1.6,0,2.6,0.1,3c0.1,0.9,0.4,1.6,0.8,2.2c0.4,0.6,1,1.1,1.9,1.5c0.8,0.4,1.7,0.6,2.6,0.6
				c0.7,0,1.5-0.2,2.1-0.5c0.7-0.3,1.3-0.8,1.7-1.3c0.5-0.6,0.8-1.2,1-2c0.2-0.6,0.2-1.7,0.2-3.5v-13.6h2.3v13.6
				c0,2-0.2,3.6-0.6,4.9c-0.4,1.2-1.2,2.3-2.4,3.2c-1.2,0.9-2.6,1.4-4.3,1.4c-1.8,0-3.4-0.4-4.7-1.3c-1.3-0.9-2.2-2-2.6-3.4
				c-0.3-0.9-0.4-2.5-0.4-4.7V207.7z M69.8,226c2-1.9,2.9-4.3,2.9-7.1c0-1.8-0.4-3.4-1.2-4.9c-0.8-1.4-2-2.6-3.5-3.5
				c-1.5-0.9-3.1-1.3-4.8-1.3c-1.7,0-3.3,0.4-4.8,1.3c-1.5,0.9-2.7,2-3.5,3.5c-0.8,1.5-1.3,3.1-1.3,4.9c0,2.7,0.9,4.9,2.8,6.8
				c1.9,1.8,4.1,2.8,6.7,2.8c1.8,0,3.4-0.4,4.9-1.3l-5-6.4h2.7L69.8,226z M71.2,227.8l3.3,4.2h-2.8l-2.3-2.9
				c-1.8,1.1-3.9,1.7-6.2,1.7c-3.3,0-6.2-1.1-8.5-3.4c-2.3-2.3-3.4-5.1-3.4-8.3c0-2.2,0.5-4.2,1.6-6c1.1-1.9,2.5-3.3,4.3-4.3
				c1.8-1,3.8-1.6,6-1.6c3.3,0,6.2,1.1,8.4,3.4c2.3,2.3,3.4,5.1,3.4,8.4c0,1.7-0.3,3.3-0.9,4.8C73.5,225.2,72.5,226.5,71.2,227.8z
				 M23,207.7H36v2.2H25.3v7h10.6v2.2H25.3v8.8h10.6v2.2H23V207.7z"/>
		</g>
	</g>
	<path id="_x38__1_" class="st2" d="M400,201.6c-2.4,0-4.3,1.9-4.3,4.3c0,2.4,1.9,4.3,4.3,4.3c2.4,0,4.3-1.9,4.3-4.3
		C404.3,203.6,402.4,201.6,400,201.6z M400,209.6c-2,0-3.6-1.6-3.6-3.6c0-2,1.6-3.6,3.6-3.6c2,0,3.6,1.6,3.6,3.6
		C403.6,208,402,209.6,400,209.6z M401.2,206.5c-0.1-0.1-0.3-0.3-0.5-0.4c0.4-0.1,0.7-0.2,0.9-0.4c0.2-0.2,0.3-0.5,0.3-0.8
		c0-0.3-0.1-0.5-0.2-0.7c-0.1-0.2-0.3-0.4-0.5-0.4c-0.2-0.1-0.6-0.1-1.1-0.1h-1.9v4.5h0.9v-1.9h0.2c0.2,0,0.4,0,0.5,0.1
		c0.1,0,0.2,0.1,0.3,0.2c0.1,0.1,0.2,0.3,0.5,0.7l0.7,1h1.1l-0.6-0.9C401.5,206.9,401.3,206.6,401.2,206.5z M399.8,205.5h-0.7v-1.1
		h0.7c0.4,0,0.6,0,0.7,0c0.1,0,0.3,0.1,0.3,0.2c0.1,0.1,0.1,0.2,0.1,0.4c0,0.1,0,0.2-0.1,0.3c-0.1,0.1-0.1,0.2-0.3,0.2
		C400.5,205.5,400.2,205.5,399.8,205.5z"/>
</g>
</svg>
